<?xml version="1.0" encoding="UTF-8"?>
<svg version="1.1" viewBox="0 0 2048 1536" width="4032" height="3024" xmlns="http://www.w3.org/2000/svg">
<path transform="translate(857,582)" d="m0 0h56l15 37 19 47 3 7 2-2 19-47 17-42h62l5 11 20 49 12 30 1 2 15-36 22-55 1-1h55l-3 10-14 34-31 77-34 84-10 25-3-3-15-37-21-52-22-54-8-20-1-1-20 49-19 47-25 62-4 9-3-4-20-50-12-29-26-65-12-29-20-50z" fill="#FEFEFE"/>
<path transform="translate(438,540)" d="m0 0 4 2 9 9 8 7 16 15 12 11 13 12 10 9 15 14 12 11 15 14 12 11 13 12 24 22 1-146h51v264l-7-6-10-9-15-14-12-11-26-24-10-9-15-14-65-60-4-3v148h-51z" fill="#FEFEFE"/>
<path transform="translate(689,582)" d="m0 0h144v51h-93v35h92l1 1v50l-1 1h-92v33h92l1 1v50l-1 1h-143l-1-2 1-83h-11v-52l10-1z" fill="#FEFEFE"/>
<path transform="translate(1849,580)" d="m0 0h144v51l-92 1-1 34h93v52h-93v33h93v52h-143l-1-1v-84h-10l-1-1v-50l1-1h10z" fill="#FEFEFE"/>
<path transform="translate(1249,542)" d="m0 0h99l16 4 12 5 11 8 7 6 8 10 8 15 4 13 1 7v17l-3 14-7 16-7 10-8 9-14 10-14 6-15 3h-46v107l-1 1h-50l-1-1v-107h-15v-51h15zm52 51v51h39l9-2 8-6 5-7 2-12-2-9-6-8-7-5-8-2z" fill="#FEFEFE"/>
<path transform="translate(1530,576)" d="m0 0 18 1 18 4 16 6 16 9 11 9 12 12 10 15 8 16 5 16 2 11v29l-4 19-8 19-7 12-8 10-6 7-8 7-13 9-16 8-14 5-11 2-10-13-12-14-12-11-14-9-13-6-5 1-10 6-16 13-2 2-4-1-7-7-10-14-8-16-5-15-3-17v-23l3-17 5-15 9-17 9-12 11-12 13-10 19-10 18-6 11-2zm-6 52-15 4-11 6-12 11-7 10-5 11-2 7-1 8v10l3 15 7 14 8 10 10 8 12 6 10 3 15 1 14-2 12-5 11-7 9-9 8-13 4-12 1-6v-17l-3-12-7-14-9-10-9-8-15-7-10-2z" fill="#FEFEFE"/>
<path transform="translate(1489,765)" d="m0 0 5 2 11 8 14 12 9 9 9 11 9 13 10 19 6 16 5 21 2 16 1 20-10 27-16 41-2 4-26-2h-51l-26 2-4-8-16-41-8-21v-11l2-23 5-23 7-19 10-19 8-11 9-11 17-17 17-13zm-1 38-5 5v6l-5 1-3 3 1 9 6 3 1 6-5-1-3-6-4-3-6 1-3 3-1 4-10 5-1 3 4 4 7 1 1 6 3 3h8l3-3 1-6h7l-1 25-5 2-3 3v7l2 3 5 1 5 10 4 1 6-11 5-2 2-4-1-6-4-3h-4v-26l6 1 3 7 2 1h7l4-4v-5l7-1 4-4-2-4-6-3h-3l-1-6-5-3-5 1-4 4-1 5-5-1v-6l5-1 2-2 1-7-3-4-5-1-1-6-4-5z" fill="#FEFEFE"/>
<path transform="translate(1679,580)" d="m0 0h89l15 4 12 6 10 8 9 10 8 15 4 16v18l-4 16-7 14-11 12-9 7-14 7-12 3h-38v85l-1 1h-50l-1-1v-85h-8v-51h8zm52 51v34h31l8-4 4-6 1-10-3-7-7-6-3-1z" fill="#FEFEFE"/>
<path transform="translate(179,676)" d="m0 0h30v48h39v-48h29v127h-29v-50h-39v50h-30v-50h-6v-29h6z" fill="#FEFEFE"/>
<path transform="translate(298,675)" d="m0 0h82v30h-53v20h53v29h-53l1 19h52v30h-82l-1-48-6-1v-29l6-1z" fill="#FEFEFE"/>
<path transform="translate(930,859)" d="m0 0h20l11 3 16 8 11 10 7 11 5 11 2 9v18l-3 12-8 16-11 12-13 8-11 4-15 2-17-2-12-5-10-6-6-5-8-10-7-14-3-15v-11l3-14 8-16 9-10 10-8 11-5zm3 28-12 5-5 4-7 10-2 6-1 10 2 10 4 8 5 6 9 6 6 2h16l10-4 10-9 5-10 1-4v-13l-3-9-7-9-8-6-8-3z" fill="#FEFEFE"/>
<path transform="translate(778,860)" d="m0 0h38l13 3 10 5 10 9 7 11 3 9 1 6v15l-3 12-5 10-4 5 1 5 14 22 5 8v2h-33l-13-21h-16v21h-28v-21l-5-1v-27l5-1zm29 28-1 1v43h12l8-5 4-5 2-7v-9l-3-9-8-7-8-2z" fill="#FEFEFE"/>
<path transform="translate(1102,860)" d="m0 0h78l1 1v27l-1 1h-50v19h51v28h-51v18h51v28h-79v-46h-6v-28h6z" fill="#FEFEFE"/>
<path transform="translate(669,840)" d="m0 0h57l11 4 9 6 7 8 5 10 2 9v10l-4 13-6 9-7 7-12 6-12 2h-22v58h-28v-58h-8v-29h8zm28 28v27h26l7-6 2-9-3-7-5-4-2-1z" fill="#FEFEFE"/>
<path transform="translate(55,653)" d="m0 0h104v29l-37 1-1 120h-29v-121h-37z" fill="#FEFEFE"/>
<path transform="translate(1255,860)" d="m0 0h22l1 1v27l-1 1-30 1-12 6-8 9-4 13v8l4 12 9 10 8 4 9 2 25 1v28h-28l-14-3-10-4-11-8-8-8-7-11-5-15-1-6v-13l4-16 7-13 11-12 11-7 13-5z" fill="#FEFEFE"/>
<path transform="translate(1291,861)" d="m0 0h83v28h-27v93h-28v-93h-27l-1-1z" fill="#FEFEFE"/>
<path transform="translate(1055,860)" d="m0 0h27l1 1v89l-3 10-6 10-8 7-8 4-4 1h-38v-28l33-1 4-3 1-3z" fill="#FEFEFE"/>
</svg>
