<?xml version="1.0" encoding="UTF-8" standalone="no"?>
<svg
   version="1.1"
   viewBox="0 0 1938 444"
   width="3815.4375"
   height="874.125"
   id="svg18"
   sodipodi:docname="The-New-Pope Logo.svg"
   inkscape:version="1.4 (e7c3feb1, 2024-10-09)"
   xmlns:inkscape="http://www.inkscape.org/namespaces/inkscape"
   xmlns:sodipodi="http://sodipodi.sourceforge.net/DTD/sodipodi-0.dtd"
   xmlns="http://www.w3.org/2000/svg"
   xmlns:svg="http://www.w3.org/2000/svg">
  <defs
     id="defs18" />
  <sodipodi:namedview
     id="namedview18"
     pagecolor="#ffffff"
     bordercolor="#000000"
     borderopacity="0.25"
     inkscape:showpageshadow="2"
     inkscape:pageopacity="0.0"
     inkscape:pagecheckerboard="0"
     inkscape:deskcolor="#d1d1d1"
     inkscape:zoom="0.26190476"
     inkscape:cx="3335.1818"
     inkscape:cy="448.63636"
     inkscape:window-width="2048"
     inkscape:window-height="1152"
     inkscape:window-x="0"
     inkscape:window-y="0"
     inkscape:window-maximized="0"
     inkscape:current-layer="svg18" />
  <path
     d="m 802,42 h 56 l 15,37 19,47 3,7 2,-2 19,-47 17,-42 h 62 l 5,11 20,49 12,30 1,2 15,-36 22,-55 1,-1 h 55 l -3,10 -14,34 -31,77 -34,84 -10,25 -3,-3 -15,-37 -21,-52 -22,-54 -8,-20 -1,-1 -20,49 -19,47 -25,62 -4,9 -3,-4 -20,-50 -12,-29 -26,-65 -12,-29 -20,-50 z"
     fill="#fefefe"
     id="path1" />
  <path
     d="m 383,0 4,2 9,9 8,7 16,15 12,11 13,12 10,9 15,14 12,11 15,14 12,11 13,12 24,22 1,-146 h 51 v 264 l -7,-6 -10,-9 -15,-14 -12,-11 -26,-24 -10,-9 -15,-14 -65,-60 -4,-3 v 148 h -51 z"
     fill="#fefefe"
     id="path2" />
  <path
     d="m 634,42 h 144 v 51 h -93 v 35 h 92 l 1,1 v 50 l -1,1 h -92 v 33 h 92 l 1,1 v 50 l -1,1 H 634 l -1,-2 1,-83 h -11 v -52 l 10,-1 z"
     fill="#fefefe"
     id="path3" />
  <path
     d="m 1794,40 h 144 v 51 l -92,1 -1,34 h 93 v 52 h -93 v 33 h 93 v 52 h -143 l -1,-1 v -84 h -10 l -1,-1 v -50 l 1,-1 h 10 z"
     fill="#fefefe"
     id="path4" />
  <path
     d="m 1194,2 h 99 l 16,4 12,5 11,8 7,6 8,10 8,15 4,13 1,7 v 17 l -3,14 -7,16 -7,10 -8,9 -14,10 -14,6 -15,3 h -46 v 107 l -1,1 h -50 l -1,-1 V 155 h -15 v -51 h 15 z m 52,51 v 51 h 39 l 9,-2 8,-6 5,-7 2,-12 -2,-9 -6,-8 -7,-5 -8,-2 z"
     fill="#fefefe"
     id="path5" />
  <path
     d="m 1475,36 18,1 18,4 16,6 16,9 11,9 12,12 10,15 8,16 5,16 2,11 v 29 l -4,19 -8,19 -7,12 -8,10 -6,7 -8,7 -13,9 -16,8 -14,5 -11,2 -10,-13 -12,-14 -12,-11 -14,-9 -13,-6 -5,1 -10,6 -16,13 -2,2 -4,-1 -7,-7 -10,-14 -8,-16 -5,-15 -3,-17 v -23 l 3,-17 5,-15 9,-17 9,-12 11,-12 13,-10 19,-10 18,-6 11,-2 z m -6,52 -15,4 -11,6 -12,11 -7,10 -5,11 -2,7 -1,8 v 10 l 3,15 7,14 8,10 10,8 12,6 10,3 15,1 14,-2 12,-5 11,-7 9,-9 8,-13 4,-12 1,-6 v -17 l -3,-12 -7,-14 -9,-10 -9,-8 -15,-7 -10,-2 z"
     fill="#fefefe"
     id="path6" />
  <path
     d="m 1434,225 5,2 11,8 14,12 9,9 9,11 9,13 10,19 6,16 5,21 2,16 1,20 -10,27 -16,41 -2,4 -26,-2 h -51 l -26,2 -4,-8 -16,-41 -8,-21 v -11 l 2,-23 5,-23 7,-19 10,-19 8,-11 9,-11 17,-17 17,-13 z m -1,38 -5,5 v 6 l -5,1 -3,3 1,9 6,3 1,6 -5,-1 -3,-6 -4,-3 -6,1 -3,3 -1,4 -10,5 -1,3 4,4 7,1 1,6 3,3 h 8 l 3,-3 1,-6 h 7 l -1,25 -5,2 -3,3 v 7 l 2,3 5,1 5,10 4,1 6,-11 5,-2 2,-4 -1,-6 -4,-3 h -4 v -26 l 6,1 3,7 2,1 h 7 l 4,-4 v -5 l 7,-1 4,-4 -2,-4 -6,-3 h -3 l -1,-6 -5,-3 -5,1 -4,4 -1,5 -5,-1 v -6 l 5,-1 2,-2 1,-7 -3,-4 -5,-1 -1,-6 -4,-5 z"
     fill="#fefefe"
     id="path7" />
  <path
     d="m 1624,40 h 89 l 15,4 12,6 10,8 9,10 8,15 4,16 v 18 l -4,16 -7,14 -11,12 -9,7 -14,7 -12,3 h -38 v 85 l -1,1 h -50 l -1,-1 v -85 h -8 v -51 h 8 z m 52,51 v 34 h 31 l 8,-4 4,-6 1,-10 -3,-7 -7,-6 -3,-1 z"
     fill="#fefefe"
     id="path8" />
  <path
     d="m 124,136 h 30 v 48 h 39 v -48 h 29 v 127 h -29 v -50 h -39 v 50 h -30 v -50 h -6 v -29 h 6 z"
     fill="#fefefe"
     id="path9" />
  <path
     d="m 243,135 h 82 v 30 h -53 v 20 h 53 v 29 h -53 l 1,19 h 52 v 30 h -82 l -1,-48 -6,-1 v -29 l 6,-1 z"
     fill="#fefefe"
     id="path10" />
  <path
     d="m 875,319 h 20 l 11,3 16,8 11,10 7,11 5,11 2,9 v 18 l -3,12 -8,16 -11,12 -13,8 -11,4 -15,2 -17,-2 -12,-5 -10,-6 -6,-5 -8,-10 -7,-14 -3,-15 v -11 l 3,-14 8,-16 9,-10 10,-8 11,-5 z m 3,28 -12,5 -5,4 -7,10 -2,6 -1,10 2,10 4,8 5,6 9,6 6,2 h 16 l 10,-4 10,-9 5,-10 1,-4 v -13 l -3,-9 -7,-9 -8,-6 -8,-3 z"
     fill="#fefefe"
     id="path11" />
  <path
     d="m 723,320 h 38 l 13,3 10,5 10,9 7,11 3,9 1,6 v 15 l -3,12 -5,10 -4,5 1,5 14,22 5,8 v 2 h -33 l -13,-21 h -16 v 21 h -28 v -21 l -5,-1 v -27 l 5,-1 z m 29,28 -1,1 v 43 h 12 l 8,-5 4,-5 2,-7 v -9 l -3,-9 -8,-7 -8,-2 z"
     fill="#fefefe"
     id="path12" />
  <path
     d="m 1047,320 h 78 l 1,1 v 27 l -1,1 h -50 v 19 h 51 v 28 h -51 v 18 h 51 v 28 h -79 v -46 h -6 v -28 h 6 z"
     fill="#fefefe"
     id="path13" />
  <path
     d="m 614,300 h 57 l 11,4 9,6 7,8 5,10 2,9 v 10 l -4,13 -6,9 -7,7 -12,6 -12,2 h -22 v 58 h -28 v -58 h -8 v -29 h 8 z m 28,28 v 27 h 26 l 7,-6 2,-9 -3,-7 -5,-4 -2,-1 z"
     fill="#fefefe"
     id="path14" />
  <path
     d="m 0,113 h 104 v 29 l -37,1 -1,120 H 37 V 142 H 0 Z"
     fill="#fefefe"
     id="path15" />
  <path
     d="m 1200,320 h 22 l 1,1 v 27 l -1,1 -30,1 -12,6 -8,9 -4,13 v 8 l 4,12 9,10 8,4 9,2 25,1 v 28 h -28 l -14,-3 -10,-4 -11,-8 -8,-8 -7,-11 -5,-15 -1,-6 v -13 l 4,-16 7,-13 11,-12 11,-7 13,-5 z"
     fill="#fefefe"
     id="path16" />
  <path
     d="m 1236,321 h 83 v 28 h -27 v 93 h -28 v -93 h -27 l -1,-1 z"
     fill="#fefefe"
     id="path17" />
  <path
     d="m 1000,320 h 27 l 1,1 v 89 l -3,10 -6,10 -8,7 -8,4 -4,1 h -38 v -28 l 33,-1 4,-3 1,-3 z"
     fill="#fefefe"
     id="path18" />
</svg>
